<?xml version="1.0" encoding="UTF-8" standalone="no"?><!DOCTYPE svg PUBLIC "-//W3C//DTD SVG 1.1//EN" "http://www.w3.org/Graphics/SVG/1.1/DTD/svg11.dtd"><!-- Generated by graphviz version 2.35.0 (20150314.2353) --><!-- Title: FlowChart Pages: 1 --><svg width="617pt" height="635pt" viewBox="0.00 0.00 617 635.21" xmlns="http://www.w3.org/2000/svg" xmlns:xlink="http://www.w3.org/1999/xlink"><defs><linearGradient id="g-terminatorpxh6nybjoflxr" x1="0%" x2="100%" y1="0%" y2="0%" spreadMethod="pad"><stop offset="0%" stop-color="#ff8787" stop-opacity="1"/><stop offset="100%" stop-color="#ffb9b9" stop-opacity="1"/></linearGradient><linearGradient id="g-decisionpxh6nybjoflxr" x1="0%" x2="100%" y1="0%" y2="0%" spreadMethod="pad"><stop offset="0%" stop-color="#ffd287" stop-opacity="1"/><stop offset="100%" stop-color="#ffffb9" stop-opacity="1"/></linearGradient><linearGradient id="g-processpxh6nybjoflxr" x1="0%" x2="100%" y1="0%" y2="0%" spreadMethod="pad"><stop offset="0%" stop-color="#99ff99" stop-opacity="1"/><stop offset="100%" stop-color="#cbffcb" stop-opacity="1"/></linearGradient><linearGradient id="g-defaultpxh6nybjoflxr" x1="0%" x2="100%" y1="0%" y2="0%" spreadMethod="pad"><stop offset="0%" stop-color="#99ff99" stop-opacity="1"/><stop offset="100%" stop-color="#cbffcb" stop-opacity="1"/></linearGradient><linearGradient id="g-modulepxh6nybjoflxr" x1="0%" x2="100%" y1="0%" y2="0%" spreadMethod="pad"><stop offset="0%" stop-color="#77c1e4" stop-opacity="1"/><stop offset="100%" stop-color="#a9f3ff" stop-opacity="1"/></linearGradient><linearGradient id="g-dataiopxh6nybjoflxr" x1="0%" x2="100%" y1="0%" y2="0%" spreadMethod="pad"><stop offset="0%" stop-color="#bebebe" stop-opacity="1"/><stop offset="100%" stop-color="#f0f0f0" stop-opacity="1"/></linearGradient><linearGradient id="g-preparationpxh6nybjoflxr" x1="0%" x2="100%" y1="0%" y2="0%" spreadMethod="pad"><stop offset="0%" stop-color="#bebebe" stop-opacity="1"/><stop offset="100%" stop-color="#f0f0f0" stop-opacity="1"/></linearGradient><linearGradient id="g-commentpxh6nybjoflxr" x1="0%" x2="100%" y1="0%" y2="0%" spreadMethod="pad"><stop offset="0%" stop-color="#f5f588" stop-opacity="1"/><stop offset="100%" stop-color="#ffffba" stop-opacity="1"/></linearGradient><linearGradient id="g-manualpxh6nybjoflxr" x1="0%" x2="100%" y1="0%" y2="0%" spreadMethod="pad"><stop offset="0%" stop-color="#9e78ff" stop-opacity="1"/><stop offset="100%" stop-color="#d0aaff" stop-opacity="1"/></linearGradient><filter id="dropshadowpxh6nybjoflxr" height="150%" width="150%"><feGaussianBlur in="SourceAlpha" stdDeviation="3"/><feOffset dx="2" dy="2" result="offsetblur"/><feComponentTransfer/><feMerge><feMergeNode/><feMergeNode in="SourceGraphic"/></feMerge></filter></defs><g id="flowpxh6nybjoflxr" class="graph" transform="scale(0.423529 0.423529) rotate(0) translate(4 1484)"><title>FlowChart</title><!-- dataio_block_1 --><g id="node1" class="node"><title>dataio_block_1</title><polygon fill="url(#g-dataiopxh6nybjoflxr)" stroke="black" points="1193.89,-1412 1009.54,-1412 962.113,-1376 1146.46,-1376 1193.89,-1412"/><text xml:space="preserve" text-anchor="start" x="1002.5" y="-1391.5" font-family="Open Sans" font-size="10.00">HTTPRequest (SS_HTTPRequest)</text></g><!-- module_block_3 --><g id="node3" class="node"><title>module_block_3</title><polygon fill="url(#g-modulepxh6nybjoflxr)" stroke="black" points="1009,-1296 1009,-1334 1012,-1334 1012,-1296 1009,-1296"/><polygon fill="url(#g-modulepxh6nybjoflxr)" stroke="black" points="1012,-1296 1012,-1334 1145,-1334 1145,-1296 1012,-1296"/><text xml:space="preserve" text-anchor="start" x="1025" y="-1312.5" font-family="Open Sans" font-size="10.00">RESTfulAPI (Controller)</text><polygon fill="url(#g-modulepxh6nybjoflxr)" stroke="black" points="1145,-1296 1145,-1334 1148,-1334 1148,-1296 1145,-1296"/></g><!-- dataio_block_1&#45;&gt;module_block_3 --><g id="edge1" class="edge"><title>dataio_block_1->module_block_3</title><path fill="none" stroke="black" d="M1078,-1375.91C1078,-1366.61 1078,-1354.86 1078,-1344.23"/><polygon fill="black" stroke="black" points="1081.5,-1344.11 1078,-1334.11 1074.5,-1344.11 1081.5,-1344.11"/><text xml:space="preserve" text-anchor="start" x="1078" y="-1353.5" font-family="Open Sans" font-weight="bold" font-size="10.00"> RESTfulAPI.php </text></g><!-- comment_block_2 --><g id="node2" class="node"><title>comment_block_2</title><polygon fill="url(#g-commentpxh6nybjoflxr)" stroke="black" points="1176.25,-1480 973.75,-1480 973.75,-1444 1182.25,-1444 1182.25,-1474 1176.25,-1480"/><polyline fill="none" stroke="black" points="1176.25,-1480 1176.25,-1474 "/><polyline fill="none" stroke="black" points="1182.25,-1474 1176.25,-1474 "/><text xml:space="preserve" text-anchor="start" x="1054.5" y="-1463" font-family="Open Sans" font-size="8.00">Example URL</text><text xml:space="preserve" text-anchor="start" x="977.5" y="-1454" font-family="Open Sans" font-size="8.00">sitelease.ca/StoreProvisioner/api/$MainAction/$Action</text></g><!-- comment_block_2&#45;&gt;dataio_block_1 --><g id="edge43" class="edge"><title>comment_block_2->dataio_block_1</title><path fill="none" stroke="black" stroke-dasharray="5,2" d="M1078,-1443.66C1078,-1435.69 1078,-1426.13 1078,-1417.61"/><polyline fill="none" stroke="black" points="1078,-1412.45 1078,-1417.45 "/></g><!-- manual_block_4 --><g id="node4" class="node"><title>manual_block_4</title><polygon fill="url(#g-manualpxh6nybjoflxr)" stroke="black" points="1005.55,-1228 1150.45,-1228 1202.06,-1264 953.937,-1264 1005.55,-1228"/><text xml:space="preserve" text-anchor="start" x="1011.5" y="-1243.5" font-family="Open Sans" font-size="10.00">$allowed_actions (Function)</text></g><!-- module_block_3&#45;&gt;manual_block_4 --><g id="edge2" class="edge"><title>module_block_3->manual_block_4</title><path fill="none" stroke="black" d="M1078,-1295.69C1078,-1289.13 1078,-1281.59 1078,-1274.42"/><polygon fill="black" stroke="black" points="1081.5,-1274.36 1078,-1264.36 1074.5,-1274.36 1081.5,-1274.36"/></g><!-- ifs_block_5 --><g id="node5" class="node"><title>ifs_block_5</title><polygon fill="url(#g-decisionpxh6nybjoflxr)" stroke="black" points="1078,-1196 955.935,-1178 1078,-1160 1200.07,-1178 1078,-1196"/><text xml:space="preserve" text-anchor="start" x="1012.5" y="-1175.5" font-family="Open Sans" font-size="10.00">Is $MainAction allowed? (If)</text></g><!-- manual_block_4&#45;&gt;ifs_block_5 --><g id="edge3" class="edge"><title>manual_block_4->ifs_block_5</title><path fill="none" stroke="black" d="M1078,-1227.66C1078,-1221.19 1078,-1213.68 1078,-1206.52"/><polygon fill="black" stroke="black" points="1081.5,-1206.45 1078,-1196.45 1074.5,-1206.45 1081.5,-1206.45"/></g><!-- manual_block_6 --><g id="node6" class="node"><title>manual_block_6</title><polygon fill="url(#g-manualpxh6nybjoflxr)" stroke="black" points="906.062,-1082 1027.94,-1082 1071.34,-1118 862.658,-1118 906.062,-1082"/><text xml:space="preserve" text-anchor="start" x="912" y="-1097.5" font-family="Open Sans" font-size="10.00">$url_handler (Function)</text></g><!-- ifs_block_5&#45;&gt;manual_block_6 --><g id="edge4" class="edge"><title>ifs_block_5->manual_block_6</title><path fill="none" stroke="black" d="M1057.38,-1162.88C1041.47,-1151.99 1019.12,-1136.69 1000.63,-1124.03"/><polygon fill="black" stroke="black" points="1002.41,-1121 992.178,-1118.24 998.452,-1126.78 1002.41,-1121"/><text xml:space="preserve" text-anchor="start" x="1030" y="-1137.5" font-family="Open Sans" font-weight="bold" font-size="10.00"> True </text></g><!-- terminator_block_39 --><g id="node39" class="node"><title>terminator_block_39</title><ellipse fill="url(#g-terminatorpxh6nybjoflxr)" stroke="black" cx="1410" cy="-1049" rx="27" ry="18"/><text xml:space="preserve" text-anchor="start" x="1398" y="-1046.5" font-family="Open Sans" font-size="10.00">Error</text></g><!-- ifs_block_5&#45;&gt;terminator_block_39 --><g id="edge34" class="edge"><title>ifs_block_5->terminator_block_39</title><path fill="none" stroke="black" d="M1110.14,-1164.71C1173.47,-1140.48 1313.78,-1086.81 1377.45,-1062.45"/><polygon fill="black" stroke="black" points="1378.89,-1065.65 1386.98,-1058.8 1376.39,-1059.11 1378.89,-1065.65"/><text xml:space="preserve" text-anchor="start" x="1189" y="-1137.5" font-family="Open Sans" font-weight="bold" font-size="10.00"> False </text></g><!-- switch_block_7 --><g id="node7" class="node"><title>switch_block_7</title><polygon fill="url(#g-decisionpxh6nybjoflxr)" stroke="black" points="820,-1016 699.433,-998 820,-980 940.567,-998 820,-1016"/><text xml:space="preserve" text-anchor="start" x="755.5" y="-995.5" font-family="Open Sans" font-size="10.00">Who handles this Request?</text></g><!-- manual_block_6&#45;&gt;switch_block_7 --><g id="edge5" class="edge"><title>manual_block_6->switch_block_7</title><path fill="none" stroke="black" d="M941.73,-1081.81C915.953,-1064.27 876.006,-1037.1 848.966,-1018.7"/><polygon fill="black" stroke="black" points="850.911,-1015.8 840.674,-1013.06 846.974,-1021.58 850.911,-1015.8"/></g><!-- manual_block_8 --><g id="node8" class="node"><title>manual_block_8</title><polygon fill="url(#g-manualpxh6nybjoflxr)" stroke="black" points="974.515,-851 1065.48,-851 1097.88,-887 942.117,-887 974.515,-851"/><text xml:space="preserve" text-anchor="start" x="981" y="-866.5" font-family="Open Sans" font-size="10.00">auth() (Function)</text></g><!-- switch_block_7&#45;&gt;manual_block_8 --><g id="edge6" class="edge"><title>switch_block_7->manual_block_8</title><path fill="none" stroke="black" d="M841.784,-983.167C876.117,-961.366 943.152,-918.799 984.507,-892.538"/><polygon fill="black" stroke="black" points="986.607,-895.35 993.173,-887.035 982.855,-889.441 986.607,-895.35"/><text xml:space="preserve" text-anchor="start" x="887" y="-957.5" font-family="Open Sans" font-weight="bold" font-size="10.00"> auth/$Action </text></g><!-- manual_block_16 --><g id="node16" class="node"><title>manual_block_16</title><polygon fill="url(#g-manualpxh6nybjoflxr)" stroke="black" points="500.475,-902 595.525,-902 629.377,-938 466.623,-938 500.475,-902"/><text xml:space="preserve" text-anchor="start" x="507" y="-917.5" font-family="Open Sans" font-size="10.00">index() (Function)</text></g><!-- switch_block_7&#45;&gt;manual_block_16 --><g id="edge12" class="edge"><title>switch_block_7->manual_block_16</title><path fill="none" stroke="black" d="M780.158,-985.868C737.877,-974.054 670.21,-955.147 618.813,-940.786"/><polygon fill="black" stroke="black" points="619.662,-937.389 609.089,-938.069 617.778,-944.131 619.662,-937.389"/><text xml:space="preserve" text-anchor="start" x="701" y="-957.5" font-family="Open Sans" font-weight="bold" font-size="10.00"> $className/$ID </text></g><!-- manual_block_31 --><g id="node31" class="node"><title>manual_block_31</title><polygon fill="url(#g-manualpxh6nybjoflxr)" stroke="black" points="761.306,-749 844.694,-749 874.392,-785 731.608,-785 761.306,-749"/><text xml:space="preserve" text-anchor="start" x="768" y="-764.5" font-family="Open Sans" font-size="10.00">acl() (Function)</text></g><!-- switch_block_7&#45;&gt;manual_block_31 --><g id="edge28" class="edge"><title>switch_block_7->manual_block_31</title><path fill="none" stroke="black" d="M818.75,-980.161C815.84,-940.968 808.593,-843.342 805.035,-795.418"/><polygon fill="black" stroke="black" points="808.506,-794.888 804.275,-785.175 801.525,-795.407 808.506,-794.888"/><text xml:space="preserve" text-anchor="start" x="816" y="-918.5" font-family="Open Sans" font-weight="bold" font-size="10.00"> acl/$Action </text></g><!-- ifs_block_9 --><g id="node9" class="node"><title>ifs_block_9</title><polygon fill="url(#g-decisionpxh6nybjoflxr)" stroke="black" points="1222,-476 1076,-413 1222,-350 1368,-413 1222,-476"/><text xml:space="preserve" text-anchor="start" x="1183" y="-432.5" font-family="Open Sans" font-size="10.00">Is $Action in the</text><text xml:space="preserve" text-anchor="start" x="1166.5" y="-421.5" font-family="Open Sans" font-size="10.00">$allowed_actions array</text><text xml:space="preserve" text-anchor="start" x="1157" y="-410.5" font-family="Open Sans" font-size="10.00">within authenticator? AND </text><text xml:space="preserve" text-anchor="start" x="1163" y="-399.5" font-family="Open Sans" font-size="10.00">Does a method exist for </text><text xml:space="preserve" text-anchor="start" x="1186" y="-388.5" font-family="Open Sans" font-size="10.00">that action? (If)</text></g><!-- manual_block_8&#45;&gt;ifs_block_9 --><g id="edge7" class="edge"><title>manual_block_8->ifs_block_9</title><path fill="none" stroke="black" d="M1031.57,-850.771C1043.38,-831.476 1060,-798.853 1060,-768 1060,-768 1060,-768 1060,-559 1060,-510.648 1100.56,-474.379 1141.1,-450.207"/><polygon fill="black" stroke="black" points="1143.08,-453.104 1150,-445.082 1139.59,-447.037 1143.08,-453.104"/></g><!-- manual_block_10 --><g id="node10" class="node"><title>manual_block_10</title><polygon fill="url(#g-manualpxh6nybjoflxr)" stroke="black" points="1066.81,-272 1171.19,-272 1208.36,-308 1029.64,-308 1066.81,-272"/><text xml:space="preserve" text-anchor="start" x="1073" y="-287.5" font-family="Open Sans" font-size="10.00">$action() (Function)</text></g><!-- ifs_block_9&#45;&gt;manual_block_10 --><g id="edge8" class="edge"><title>ifs_block_9->manual_block_10</title><path fill="none" stroke="black" d="M1148.36,-381.759C1129.19,-370.117 1110.88,-354.74 1100,-335 1096.89,-329.358 1097.4,-323.103 1099.62,-317.122"/><polygon fill="black" stroke="black" points="1102.81,-318.573 1104.26,-308.077 1096.58,-315.382 1102.81,-318.573"/><text xml:space="preserve" text-anchor="start" x="1100" y="-327.5" font-family="Open Sans" font-weight="bold" font-size="10.00"> RESTfulAPI_Authenticator.php </text></g><!-- terminator_block_15 --><g id="node15" class="node"><title>terminator_block_15</title><ellipse fill="url(#g-terminatorpxh6nybjoflxr)" stroke="black" cx="1259" cy="-239" rx="92.1304" ry="18"/><text xml:space="preserve" text-anchor="start" x="1188.5" y="-236.5" font-family="Open Sans" font-size="10.00">403 Error: Action not allowed</text></g><!-- ifs_block_9&#45;&gt;terminator_block_15 --><g id="edge11" class="edge"><title>ifs_block_9->terminator_block_15</title><path fill="none" stroke="black" d="M1251.34,-362.352C1255.33,-353.509 1258.81,-344.182 1261,-335 1266.34,-312.63 1265.27,-286.45 1263.19,-267.245"/><polygon fill="black" stroke="black" points="1266.64,-266.584 1261.93,-257.093 1259.69,-267.449 1266.64,-266.584"/><text xml:space="preserve" text-anchor="start" x="1264" y="-327.5" font-family="Open Sans" font-weight="bold" font-size="10.00"> False </text></g><!-- manual_block_12 --><g id="node12" class="node"><title>manual_block_12</title><polygon fill="url(#g-manualpxh6nybjoflxr)" stroke="black" points="904.039,-170 1013.96,-170 1053.11,-206 864.892,-206 904.039,-170"/><text xml:space="preserve" text-anchor="start" x="910.5" y="-185.5" font-family="Open Sans" font-size="10.00">serialize() (Function)</text></g><!-- manual_block_10&#45;&gt;manual_block_12 --><g id="edge9" class="edge"><title>manual_block_10->manual_block_12</title><path fill="none" stroke="black" d="M1061.41,-277.055C1046.19,-272.305 1030.31,-265.804 1017,-257 1000.39,-246.013 985.852,-228.949 975.488,-214.663"/><polygon fill="black" stroke="black" points="978.183,-212.408 969.593,-206.207 972.441,-216.412 978.183,-212.408"/><text xml:space="preserve" text-anchor="start" x="1017" y="-237.5" font-family="Open Sans" font-weight="bold" font-size="10.00"> RESTfulAPI_Serializer.php </text></g><!-- comment_block_11 --><g id="node11" class="node"><title>comment_block_11</title><polygon fill="url(#g-commentpxh6nybjoflxr)" stroke="black" points="1041,-431 955,-431 955,-395 1047,-395 1047,-425 1041,-431"/><polyline fill="none" stroke="black" points="1041,-431 1041,-425 "/><polyline fill="none" stroke="black" points="1047,-425 1041,-425 "/><text xml:space="preserve" text-anchor="start" x="959" y="-414" font-family="Open Sans" font-size="8.00">Pass data to the action</text><text xml:space="preserve" text-anchor="start" x="986.5" y="-405" font-family="Open Sans" font-size="8.00">method</text></g><!-- comment_block_11&#45;&gt;manual_block_10 --><g id="edge45" class="edge"><title>comment_block_11->manual_block_10</title><path fill="none" stroke="black" stroke-dasharray="5,2" d="M1017.52,-394.86C1029.55,-382.392 1046.25,-365.119 1061,-350 1073.43,-337.251 1087.43,-323.012 1098.56,-311.717"/><polyline fill="none" stroke="black" points="1102.21,-308.006 1098.7,-311.567 "/></g><!-- process_block_14 --><g id="node14" class="node"><title>process_block_14</title><polygon fill="url(#g-processpxh6nybjoflxr)" stroke="black" points="917,-104 863,-104 863,-68 917,-68 917,-104"/><text xml:space="preserve" text-anchor="start" x="872.5" y="-83.5" font-family="Open Sans" font-size="10.00">Answer</text></g><!-- manual_block_12&#45;&gt;process_block_14 --><g id="edge10" class="edge"><title>manual_block_12->process_block_14</title><path fill="none" stroke="black" d="M946.981,-169.581C936.098,-153.808 919.927,-130.373 907.59,-112.492"/><polygon fill="black" stroke="black" points="910.441,-110.462 901.881,-104.219 904.68,-114.438 910.441,-110.462"/></g><!-- comment_block_13 --><g id="node13" class="node"><title>comment_block_13</title><polygon fill="url(#g-commentpxh6nybjoflxr)" stroke="black" points="994,-308 900,-308 900,-272 1000,-272 1000,-302 994,-308"/><polyline fill="none" stroke="black" points="994,-308 994,-302 "/><polyline fill="none" stroke="black" points="1000,-302 994,-302 "/><text xml:space="preserve" text-anchor="start" x="928.5" y="-291" font-family="Open Sans" font-size="8.00">Serialize the</text><text xml:space="preserve" text-anchor="start" x="904" y="-282" font-family="Open Sans" font-size="8.00">authenticator's response</text></g><!-- comment_block_13&#45;&gt;manual_block_12 --><g id="edge47" class="edge"><title>comment_block_13->manual_block_12</title><path fill="none" stroke="black" stroke-dasharray="5,2" d="M951.568,-271.581C953.065,-254.948 955.329,-229.793 956.964,-211.618"/><polyline fill="none" stroke="black" points="957.45,-206.219 957.002,-211.199 "/></g><!-- dataio_block_40 --><g id="node40" class="node"><title>dataio_block_40</title><polygon fill="url(#g-dataiopxh6nybjoflxr)" stroke="black" points="693.046,-36 594.345,-36 568.954,-1.42109e-14 667.655,-3.55271e-15 693.046,-36"/><text xml:space="preserve" text-anchor="start" x="590.5" y="-15.5" font-family="Open Sans" font-size="10.00">Return Response</text></g><!-- process_block_14&#45;&gt;dataio_block_40 --><g id="edge35" class="edge"><title>process_block_14->dataio_block_40</title><path fill="none" stroke="black" d="M862.957,-70.3049C849.485,-63.533 832.745,-55.9245 817,-51 777.41,-38.6177 731.49,-30.6564 695.182,-25.7716"/><polygon fill="black" stroke="black" points="695.577,-22.2936 685.209,-24.4743 694.674,-29.2351 695.577,-22.2936"/></g><!-- terminator_block_15&#45;&gt;dataio_block_40 --><g id="edge36" class="edge"><title>terminator_block_15->dataio_block_40</title><path fill="none" stroke="black" d="M1233.79,-221.663C1180.27,-187.733 1050.39,-109.357 931,-68 892.948,-54.819 881.693,-57.7982 842,-51 793.418,-42.6794 738.349,-34.3652 696.655,-28.2976"/><polygon fill="black" stroke="black" points="697.024,-24.8146 686.625,-26.8438 696.02,-31.7422 697.024,-24.8146"/></g><!-- ifs_block_17 --><g id="node17" class="node"><title>ifs_block_17</title><polygon fill="url(#g-decisionpxh6nybjoflxr)" stroke="black" points="466,-836 246.831,-818 466,-800 685.169,-818 466,-836"/><text xml:space="preserve" text-anchor="start" x="342" y="-815.5" font-family="Open Sans" font-size="10.00">Authenticator exists AND authentication is enabled</text></g><!-- manual_block_16&#45;&gt;ifs_block_17 --><g id="edge13" class="edge"><title>manual_block_16->ifs_block_17</title><path fill="none" stroke="black" d="M533.717,-901.581C520.426,-885.374 500.502,-861.076 485.703,-843.028"/><polygon fill="black" stroke="black" points="488.353,-840.74 479.306,-835.227 482.94,-845.179 488.353,-840.74"/></g><!-- manual_block_18 --><g id="node18" class="node"><title>manual_block_18</title><polygon fill="url(#g-manualpxh6nybjoflxr)" stroke="black" points="100.981,-698 231.019,-698 277.331,-734 54.6686,-734 100.981,-698"/><text xml:space="preserve" text-anchor="start" x="107" y="-713.5" font-family="Open Sans" font-size="10.00">authenticate() (Function)</text></g><!-- ifs_block_17&#45;&gt;manual_block_18 --><g id="edge14" class="edge"><title>ifs_block_17->manual_block_18</title><path fill="none" stroke="black" d="M377.007,-807.301C347.485,-802.482 314.817,-795.38 286,-785 254.836,-773.774 222.314,-754.826 199.001,-739.779"/><polygon fill="black" stroke="black" points="200.82,-736.786 190.539,-734.227 196.98,-742.639 200.82,-736.786"/><text xml:space="preserve" text-anchor="start" x="286" y="-765.5" font-family="Open Sans" font-weight="bold" font-size="10.00"> RESTfulAPI_Authenticator.php </text></g><!-- manual_block_22 --><g id="node22" class="node"><title>manual_block_22</title><polygon fill="url(#g-manualpxh6nybjoflxr)" stroke="black" points="303.896,-542 428.104,-542 472.339,-578 259.661,-578 303.896,-542"/><text xml:space="preserve" text-anchor="start" x="310" y="-557.5" font-family="Open Sans" font-size="10.00">handlQuery() (Function)</text></g><!-- ifs_block_17&#45;&gt;manual_block_22 --><g id="edge19" class="edge"><title>ifs_block_17->manual_block_22</title><path fill="none" stroke="black" d="M467.122,-799.919C468.698,-764.101 468.28,-679.536 435,-620 427.189,-606.027 414.716,-593.855 402.509,-584.254"/><polygon fill="black" stroke="black" points="404.269,-581.201 394.161,-578.027 400.084,-586.812 404.269,-581.201"/><text xml:space="preserve" text-anchor="start" x="458" y="-675.5" font-family="Open Sans" font-weight="bold" font-size="10.00"> False </text></g><!-- ifs_block_20 --><g id="node20" class="node"><title>ifs_block_20</title><polygon fill="url(#g-decisionpxh6nybjoflxr)" stroke="black" points="140,-656 -0.537303,-638 140,-620 280.537,-638 140,-656"/><text xml:space="preserve" text-anchor="start" x="63.5" y="-635.5" font-family="Open Sans" font-size="10.00">Authenticator returned an error</text></g><!-- manual_block_18&#45;&gt;ifs_block_20 --><g id="edge15" class="edge"><title>manual_block_18->ifs_block_20</title><path fill="none" stroke="black" d="M160.1,-697.754C156.808,-688.13 152.638,-675.943 148.952,-665.166"/><polygon fill="black" stroke="black" points="152.158,-663.725 145.609,-655.396 145.534,-665.99 152.158,-663.725"/></g><!-- comment_block_19 --><g id="node19" class="node"><title>comment_block_19</title><polygon fill="url(#g-commentpxh6nybjoflxr)" stroke="black" points="202.25,-836 123.75,-836 123.75,-800 208.25,-800 208.25,-830 202.25,-836"/><polyline fill="none" stroke="black" points="202.25,-836 202.25,-830 "/><polyline fill="none" stroke="black" points="208.25,-830 202.25,-830 "/><text xml:space="preserve" text-anchor="start" x="136.5" y="-819" font-family="Open Sans" font-size="8.00">Pass data to the</text><text xml:space="preserve" text-anchor="start" x="127.5" y="-810" font-family="Open Sans" font-size="8.00">authenticate method</text></g><!-- comment_block_19&#45;&gt;manual_block_18 --><g id="edge48" class="edge"><title>comment_block_19->manual_block_18</title><path fill="none" stroke="black" stroke-dasharray="5,2" d="M166,-799.581C166,-782.948 166,-757.793 166,-739.618"/><polyline fill="none" stroke="black" points="166,-734.219 166,-739.219 "/></g><!-- terminator_block_21 --><g id="node21" class="node"><title>terminator_block_21</title><ellipse fill="url(#g-terminatorpxh6nybjoflxr)" stroke="black" cx="66" cy="-509" rx="64.2466" ry="18"/><text xml:space="preserve" text-anchor="start" x="19.5" y="-506.5" font-family="Open Sans" font-size="10.00">Authenticator Error</text></g><!-- ifs_block_20&#45;&gt;terminator_block_21 --><g id="edge16" class="edge"><title>ifs_block_20->terminator_block_21</title><path fill="none" stroke="black" d="M130.777,-621.172C118.286,-599.734 95.8407,-561.213 80.9304,-535.624"/><polygon fill="black" stroke="black" points="83.8691,-533.715 75.8105,-526.837 77.8209,-537.239 83.8691,-533.715"/><text xml:space="preserve" text-anchor="start" x="122" y="-597.5" font-family="Open Sans" font-weight="bold" font-size="10.00"> True </text></g><!-- ifs_block_20&#45;&gt;manual_block_22 --><g id="edge18" class="edge"><title>ifs_block_20->manual_block_22</title><path fill="none" stroke="black" d="M176.814,-624.62C211.668,-612.899 264.623,-595.091 305.651,-581.294"/><polygon fill="black" stroke="black" points="306.911,-584.563 315.273,-578.058 304.679,-577.929 306.911,-584.563"/><text xml:space="preserve" text-anchor="start" x="267" y="-597.5" font-family="Open Sans" font-weight="bold" font-size="10.00"> False </text></g><!-- terminator_block_21&#45;&gt;dataio_block_40 --><g id="edge17" class="edge"><title>terminator_block_21->dataio_block_40</title><path fill="none" stroke="black" d="M62.144,-490.92C55.3597,-459.329 42,-389.558 42,-330 42,-330 42,-330 42,-85 42,-32.0254 423.141,-21.5704 572.225,-19.5072"/><polygon fill="black" stroke="black" points="572.596,-23.0028 582.549,-19.3727 572.505,-16.0034 572.596,-23.0028"/></g><!-- ifs_block_24 --><g id="node24" class="node"><title>ifs_block_24</title><polygon fill="url(#g-decisionpxh6nybjoflxr)" stroke="black" points="366,-431 224.714,-413 366,-395 507.286,-413 366,-431"/><text xml:space="preserve" text-anchor="start" x="289" y="-410.5" font-family="Open Sans" font-size="10.00">QueryHandler returned an error</text></g><!-- manual_block_22&#45;&gt;ifs_block_24 --><g id="edge20" class="edge"><title>manual_block_22->ifs_block_24</title><path fill="none" stroke="black" d="M366,-541.797C366,-516.943 366,-470.742 366,-441.228"/><polygon fill="black" stroke="black" points="369.5,-441.18 366,-431.18 362.5,-441.18 369.5,-441.18"/></g><!-- comment_block_23 --><g id="node23" class="node"><title>comment_block_23</title><polygon fill="url(#g-commentpxh6nybjoflxr)" stroke="black" points="415.5,-656 310.5,-656 310.5,-620 421.5,-620 421.5,-650 415.5,-656"/><polyline fill="none" stroke="black" points="415.5,-656 415.5,-650 "/><polyline fill="none" stroke="black" points="421.5,-650 415.5,-650 "/><text xml:space="preserve" text-anchor="start" x="314" y="-639" font-family="Open Sans" font-size="8.00">Pass data to the handlQuery</text><text xml:space="preserve" text-anchor="start" x="351.5" y="-630" font-family="Open Sans" font-size="8.00">method</text></g><!-- comment_block_23&#45;&gt;manual_block_22 --><g id="edge41" class="edge"><title>comment_block_23->manual_block_22</title><path fill="none" stroke="black" stroke-dasharray="5,2" d="M366,-619.754C366,-608.968 366,-594.964 366,-583.334"/><polyline fill="none" stroke="black" points="366,-578.177 366,-583.177 "/></g><!-- terminator_block_25 --><g id="node25" class="node"><title>terminator_block_25</title><ellipse fill="url(#g-terminatorpxh6nybjoflxr)" stroke="black" cx="472" cy="-137" rx="64.1318" ry="18"/><text xml:space="preserve" text-anchor="start" x="425" y="-134.5" font-family="Open Sans" font-size="10.00">QueryHandler Error</text></g><!-- ifs_block_24&#45;&gt;terminator_block_25 --><g id="edge21" class="edge"><title>ifs_block_24->terminator_block_25</title><path fill="none" stroke="black" d="M372.313,-395.681C389.978,-350.019 440.028,-220.645 461.74,-164.52"/><polygon fill="black" stroke="black" points="465.107,-165.519 465.45,-154.93 458.578,-162.994 465.107,-165.519"/><text xml:space="preserve" text-anchor="start" x="419" y="-288.5" font-family="Open Sans" font-weight="bold" font-size="10.00"> True </text></g><!-- manual_block_26 --><g id="node26" class="node"><title>manual_block_26</title><polygon fill="url(#g-manualpxh6nybjoflxr)" stroke="black" points="159.039,-272 268.961,-272 308.108,-308 119.892,-308 159.039,-272"/><text xml:space="preserve" text-anchor="start" x="165.5" y="-287.5" font-family="Open Sans" font-size="10.00">serialize() (Function)</text></g><!-- ifs_block_24&#45;&gt;manual_block_26 --><g id="edge23" class="edge"><title>ifs_block_24->manual_block_26</title><path fill="none" stroke="black" d="M347.362,-397.163C321.493,-376.57 274.426,-339.103 243.69,-314.635"/><polygon fill="black" stroke="black" points="245.489,-311.594 235.486,-308.104 241.13,-317.07 245.489,-311.594"/><text xml:space="preserve" text-anchor="start" x="268" y="-327.5" font-family="Open Sans" font-weight="bold" font-size="10.00"> False </text></g><!-- terminator_block_25&#45;&gt;dataio_block_40 --><g id="edge22" class="edge"><title>terminator_block_25->dataio_block_40</title><path fill="none" stroke="black" d="M493.775,-119.977C521.062,-99.8976 568.035,-65.3325 599.308,-42.3207"/><polygon fill="black" stroke="black" points="601.702,-44.9041 607.682,-36.1582 597.554,-39.266 601.702,-44.9041"/></g><!-- ifs_block_28 --><g id="node28" class="node"><title>ifs_block_28</title><polygon fill="url(#g-decisionpxh6nybjoflxr)" stroke="black" points="264,-206 140.686,-188 264,-170 387.314,-188 264,-206"/><text xml:space="preserve" text-anchor="start" x="198" y="-185.5" font-family="Open Sans" font-size="10.00">Serializer returned an error</text></g><!-- manual_block_26&#45;&gt;ifs_block_28 --><g id="edge24" class="edge"><title>manual_block_26->ifs_block_28</title><path fill="none" stroke="black" d="M208.876,-271.923C205.56,-257.429 203.3,-236.568 212,-221 214.948,-215.724 219.162,-211.211 223.933,-207.382"/><polygon fill="black" stroke="black" points="226.114,-210.13 232.36,-201.572 222.141,-204.367 226.114,-210.13"/><text xml:space="preserve" text-anchor="start" x="212" y="-237.5" font-family="Open Sans" font-weight="bold" font-size="10.00"> RESTfulAPI_DefaultQueryHandler.php </text></g><!-- comment_block_27 --><g id="node27" class="node"><title>comment_block_27</title><polygon fill="url(#g-commentpxh6nybjoflxr)" stroke="black" points="189.25,-431 86.75,-431 86.75,-395 195.25,-395 195.25,-425 189.25,-431"/><polyline fill="none" stroke="black" points="189.25,-431 189.25,-425 "/><polyline fill="none" stroke="black" points="195.25,-425 189.25,-425 "/><text xml:space="preserve" text-anchor="start" x="90.5" y="-414" font-family="Open Sans" font-size="8.00">Serialize the queryHandler's</text><text xml:space="preserve" text-anchor="start" x="124" y="-405" font-family="Open Sans" font-size="8.00">response</text></g><!-- comment_block_27&#45;&gt;manual_block_26 --><g id="edge44" class="edge"><title>comment_block_27->manual_block_26</title><path fill="none" stroke="black" stroke-dasharray="5,2" d="M151.304,-394.92C164.274,-373.423 186.57,-336.466 200.782,-312.909"/><polyline fill="none" stroke="black" points="203.512,-308.385 200.929,-312.666 "/></g><!-- terminator_block_29 --><g id="node29" class="node"><title>terminator_block_29</title><ellipse fill="url(#g-terminatorpxh6nybjoflxr)" stroke="black" cx="412" cy="-86" rx="51.2058" ry="18"/><text xml:space="preserve" text-anchor="start" x="376" y="-83.5" font-family="Open Sans" font-size="10.00">Serializer Error</text></g><!-- ifs_block_28&#45;&gt;terminator_block_29 --><g id="edge25" class="edge"><title>ifs_block_28->terminator_block_29</title><path fill="none" stroke="black" d="M288.375,-173.525C297.812,-168.059 308.588,-161.507 318,-155 339.069,-140.436 342.254,-134.02 363,-119 368.185,-115.246 373.785,-111.402 379.283,-107.739"/><polygon fill="black" stroke="black" points="381.324,-110.586 387.763,-102.172 377.482,-104.735 381.324,-110.586"/><text xml:space="preserve" text-anchor="start" x="363" y="-135.5" font-family="Open Sans" font-weight="bold" font-size="10.00"> True </text></g><!-- process_block_30 --><g id="node30" class="node"><title>process_block_30</title><polygon fill="url(#g-processpxh6nybjoflxr)" stroke="black" points="319,-104 265,-104 265,-68 319,-68 319,-104"/><text xml:space="preserve" text-anchor="start" x="274.5" y="-83.5" font-family="Open Sans" font-size="10.00">Answer</text></g><!-- ifs_block_28&#45;&gt;process_block_30 --><g id="edge27" class="edge"><title>ifs_block_28->process_block_30</title><path fill="none" stroke="black" d="M268.624,-170.487C272.929,-155.112 279.422,-131.92 284.474,-113.878"/><polygon fill="black" stroke="black" points="287.856,-114.782 287.182,-104.208 281.115,-112.894 287.856,-114.782"/><text xml:space="preserve" text-anchor="start" x="283" y="-135.5" font-family="Open Sans" font-weight="bold" font-size="10.00"> False </text></g><!-- terminator_block_29&#45;&gt;dataio_block_40 --><g id="edge26" class="edge"><title>terminator_block_29->dataio_block_40</title><path fill="none" stroke="black" d="M441.162,-71.1452C456.122,-64.415 474.776,-56.5946 492,-51 519.861,-41.9501 551.654,-34.4309 577.796,-28.9603"/><polygon fill="black" stroke="black" points="578.793,-32.3289 587.886,-26.8913 577.386,-25.4716 578.793,-32.3289"/></g><!-- process_block_30&#45;&gt;dataio_block_40 --><g id="edge37" class="edge"><title>process_block_30->dataio_block_40</title><path fill="none" stroke="black" d="M319.27,-75.6293C327.766,-72.9228 337.212,-70.1285 346,-68 425.173,-48.824 518.475,-34.2716 576.19,-26.1853"/><polygon fill="black" stroke="black" points="576.766,-29.6391 586.19,-24.7991 575.805,-22.7054 576.766,-29.6391"/></g><!-- ifs_block_32 --><g id="node32" class="node"><title>ifs_block_32</title><polygon fill="url(#g-decisionpxh6nybjoflxr)" stroke="black" points="792,-476 658,-413 792,-350 926,-413 792,-476"/><text xml:space="preserve" text-anchor="start" x="753" y="-432.5" font-family="Open Sans" font-size="10.00">Is $Action in the</text><text xml:space="preserve" text-anchor="start" x="736.5" y="-421.5" font-family="Open Sans" font-size="10.00">$allowed_actions array</text><text xml:space="preserve" text-anchor="start" x="738" y="-410.5" font-family="Open Sans" font-size="10.00">within authority? AND </text><text xml:space="preserve" text-anchor="start" x="733" y="-399.5" font-family="Open Sans" font-size="10.00">Does a method exist for </text><text xml:space="preserve" text-anchor="start" x="756" y="-388.5" font-family="Open Sans" font-size="10.00">that action? (If)</text></g><!-- manual_block_31&#45;&gt;ifs_block_32 --><g id="edge29" class="edge"><title>manual_block_31->ifs_block_32</title><path fill="none" stroke="black" d="M800.824,-748.833C798.769,-731.119 796,-702.675 796,-678 796,-678 796,-678 796,-559 796,-534.979 795.445,-508.728 794.748,-485.244"/><polygon fill="black" stroke="black" points="798.239,-484.903 794.431,-475.016 791.242,-485.12 798.239,-484.903"/></g><!-- manual_block_33 --><g id="node33" class="node"><title>manual_block_33</title><polygon fill="url(#g-manualpxh6nybjoflxr)" stroke="black" points="527.809,-272 632.191,-272 669.365,-308 490.635,-308 527.809,-272"/><text xml:space="preserve" text-anchor="start" x="534" y="-287.5" font-family="Open Sans" font-size="10.00">$action() (Function)</text></g><!-- ifs_block_32&#45;&gt;manual_block_33 --><g id="edge30" class="edge"><title>ifs_block_32->manual_block_33</title><path fill="none" stroke="black" d="M723.527,-381.968C698.399,-371.356 669.596,-359.666 643,-350 621.994,-342.365 611.006,-350.6 595,-335 590.221,-330.342 586.964,-324.103 584.745,-317.79"/><polygon fill="black" stroke="black" points="588.083,-316.729 582.042,-308.025 581.337,-318.596 588.083,-316.729"/><text xml:space="preserve" text-anchor="start" x="595" y="-327.5" font-family="Open Sans" font-weight="bold" font-size="10.00"> RESTfulAPI_DefaultPermissionManager.php </text></g><!-- terminator_block_38 --><g id="node38" class="node"><title>terminator_block_38</title><ellipse fill="url(#g-terminatorpxh6nybjoflxr)" stroke="black" cx="847" cy="-239" rx="92.1304" ry="18"/><text xml:space="preserve" text-anchor="start" x="776.5" y="-236.5" font-family="Open Sans" font-size="10.00">403 Error: Action not allowed</text></g><!-- ifs_block_32&#45;&gt;terminator_block_38 --><g id="edge33" class="edge"><title>ifs_block_32->terminator_block_38</title><path fill="none" stroke="black" d="M813.977,-360.163C817.194,-351.818 820.32,-343.221 823,-335 830.384,-312.347 836.872,-286.044 841.235,-266.867"/><polygon fill="black" stroke="black" points="844.671,-267.536 843.432,-257.014 837.839,-266.013 844.671,-267.536"/><text xml:space="preserve" text-anchor="start" x="827" y="-327.5" font-family="Open Sans" font-weight="bold" font-size="10.00"> False </text></g><!-- manual_block_35 --><g id="node35" class="node"><title>manual_block_35</title><polygon fill="url(#g-manualpxh6nybjoflxr)" stroke="black" points="576.039,-170 685.961,-170 725.108,-206 536.892,-206 576.039,-170"/><text xml:space="preserve" text-anchor="start" x="582.5" y="-185.5" font-family="Open Sans" font-size="10.00">serialize() (Function)</text></g><!-- manual_block_33&#45;&gt;manual_block_35 --><g id="edge31" class="edge"><title>manual_block_33->manual_block_35</title><path fill="none" stroke="black" d="M574.843,-271.904C571.506,-257.399 569.235,-236.531 578,-221 579.664,-218.051 581.721,-215.344 584.049,-212.863"/><polygon fill="black" stroke="black" points="586.546,-215.327 591.724,-206.084 581.912,-210.081 586.546,-215.327"/><text xml:space="preserve" text-anchor="start" x="578" y="-237.5" font-family="Open Sans" font-weight="bold" font-size="10.00"> RESTfulAPI_Serializer.php </text></g><!-- comment_block_34 --><g id="node34" class="node"><title>comment_block_34</title><polygon fill="url(#g-commentpxh6nybjoflxr)" stroke="black" points="623,-431 537,-431 537,-395 629,-395 629,-425 623,-431"/><polyline fill="none" stroke="black" points="623,-431 623,-425 "/><polyline fill="none" stroke="black" points="629,-425 623,-425 "/><text xml:space="preserve" text-anchor="start" x="541" y="-414" font-family="Open Sans" font-size="8.00">Pass data to the action</text><text xml:space="preserve" text-anchor="start" x="568.5" y="-405" font-family="Open Sans" font-size="8.00">method</text></g><!-- comment_block_34&#45;&gt;manual_block_33 --><g id="edge42" class="edge"><title>comment_block_34->manual_block_33</title><path fill="none" stroke="black" stroke-dasharray="5,2" d="M576.14,-394.91C569.826,-376.971 562.123,-347.961 567,-323 567.634,-319.756 568.597,-316.425 569.72,-313.195"/><polyline fill="none" stroke="black" points="571.588,-308.23 569.827,-312.91 "/></g><!-- process_block_37 --><g id="node37" class="node"><title>process_block_37</title><polygon fill="url(#g-processpxh6nybjoflxr)" stroke="black" points="658,-104 604,-104 604,-68 658,-68 658,-104"/><text xml:space="preserve" text-anchor="start" x="613.5" y="-83.5" font-family="Open Sans" font-size="10.00">Answer</text></g><!-- manual_block_35&#45;&gt;process_block_37 --><g id="edge32" class="edge"><title>manual_block_35->process_block_37</title><path fill="none" stroke="black" d="M631,-169.581C631,-154.382 631,-132.067 631,-114.464"/><polygon fill="black" stroke="black" points="634.5,-114.219 631,-104.219 627.5,-114.219 634.5,-114.219"/></g><!-- comment_block_36 --><g id="node36" class="node"><title>comment_block_36</title><polygon fill="url(#g-commentpxh6nybjoflxr)" stroke="black" points="785.25,-308 698.75,-308 698.75,-272 791.25,-272 791.25,-302 785.25,-308"/><polyline fill="none" stroke="black" points="785.25,-308 785.25,-302 "/><polyline fill="none" stroke="black" points="791.25,-302 785.25,-302 "/><text xml:space="preserve" text-anchor="start" x="702.5" y="-291" font-family="Open Sans" font-size="8.00">Serialize the authority's</text><text xml:space="preserve" text-anchor="start" x="728" y="-282" font-family="Open Sans" font-size="8.00">response</text></g><!-- comment_block_36&#45;&gt;manual_block_35 --><g id="edge46" class="edge"><title>comment_block_36->manual_block_35</title><path fill="none" stroke="black" stroke-dasharray="5,2" d="M741.655,-271.728C737.869,-256.502 730.273,-234.672 716,-221 711.009,-216.22 705.236,-212.138 699.094,-208.656"/><polyline fill="none" stroke="black" points="694.333,-206.109 698.742,-208.468 "/></g><!-- process_block_37&#45;&gt;dataio_block_40 --><g id="edge38" class="edge"><title>process_block_37->dataio_block_40</title><path fill="none" stroke="black" d="M631,-67.6593C631,-61.1928 631,-53.6819 631,-46.5246"/><polygon fill="black" stroke="black" points="634.5,-46.454 631,-36.4541 627.5,-46.4541 634.5,-46.454"/></g><!-- terminator_block_38&#45;&gt;dataio_block_40 --><g id="edge39" class="edge"><title>terminator_block_38->dataio_block_40</title><path fill="none" stroke="black" d="M830.409,-221.179C792.495,-182.738 699.373,-88.3227 655.115,-43.4502"/><polygon fill="black" stroke="black" points="657.459,-40.8422 647.945,-36.1803 652.475,-45.7577 657.459,-40.8422"/></g><!-- terminator_block_39&#45;&gt;dataio_block_40 --><g id="edge40" class="edge"><title>terminator_block_39->dataio_block_40</title><path fill="none" stroke="black" d="M1410.62,-1030.8C1411.21,-1013.07 1412,-984.604 1412,-960 1412,-960 1412,-960 1412,-85 1412,-48.9418 876.437,-27.3439 692.304,-20.9839"/><polygon fill="black" stroke="black" points="692.358,-17.4838 682.244,-20.6395 692.118,-24.4797 692.358,-17.4838"/></g></g></svg>